<?xml version="1.0" ?><svg viewBox="0 0 22.582 22.582" xmlns="http://www.w3.org/2000/svg"><g data-name="Layer 2" id="Layer_2"><g data-name="Layer 1" id="Layer_1-2"><path d="M15.478,16.574l-2.427-.419c-1.015-.163-1.308-1.069-1.477-1.951a5.005,5.005,0,0,0,1.069-1.192,4.671,4.671,0,1,0-1.994-7.676c-5.862-1.7-8.009,5.5-4.041,8.871-.171.885-.462,1.783-1.476,1.948L2.7,16.574A3.251,3.251,0,0,0,0,19.785V22.24a.342.342,0,0,0,.684,0V19.785A2.568,2.568,0,0,1,2.82,17.249l2.118-.366,1.735,2.542a.34.34,0,0,0,.239.147.347.347,0,0,0,.269-.082l1.57-1.375V22.24a.342.342,0,0,0,.684,0V18.115L11,19.489a.342.342,0,0,0,.509-.064l1.734-2.542,2.118.366A2.567,2.567,0,0,1,17.5,19.785V22.24a.342.342,0,0,0,.684,0V19.785A3.251,3.251,0,0,0,15.478,16.574ZM14.028,4.562c5.991.336,4.811,9.1-1.043,7.84,1.162-2.185.636-5.754-1.648-6.784A3.97,3.97,0,0,1,14.028,4.562ZM5.281,9.709a4.691,4.691,0,0,1,.275-1.633C6.7,8.855,9.69,9.1,11.578,8.387a.343.343,0,0,0-.2-.655,7.069,7.069,0,0,1-5.522-.275c1.924-3.064,7.3-1.75,7.049,2.252C12.734,15.949,5.452,15.948,5.281,9.709ZM7.02,18.721l-1.366-2a2.3,2.3,0,0,0,.918-.633L8.532,17.4Zm2.073-1.773L6.944,15.51a5.542,5.542,0,0,0,.268-.9,3.8,3.8,0,0,0,3.758,0,5.636,5.636,0,0,0,.268.9Zm2.069,1.773L9.653,17.4l1.957-1.312a2.311,2.311,0,0,0,.919.633ZM22.582,7.938V9.169a.753.753,0,0,1-.752.753h-.817a6.928,6.928,0,0,1-.252.939l.708.408c.881.548-.054,1.495-.341,2.1a.755.755,0,0,1-1.028.275l-.709-.409a7.051,7.051,0,0,1-.686.686l.409.709c.49.915-.794,1.268-1.342,1.645a.755.755,0,0,1-1.028-.276l-.409-.708c-.445.08-1.433.634-1.619.017a.344.344,0,0,1,.287-.39,6.353,6.353,0,0,0,1.36-.366.344.344,0,0,1,.421.148l.552.957a.07.07,0,0,0,.094.025l1.067-.616a.076.076,0,0,0,.025-.093l-.553-.958a.341.341,0,0,1,.082-.438,6.463,6.463,0,0,0,1-1,.342.342,0,0,1,.438-.082l.958.553a.078.078,0,0,0,.094-.025l.616-1.066a.078.078,0,0,0-.025-.094l-.957-.552a.343.343,0,0,1-.148-.421,6.384,6.384,0,0,0,.366-1.36.342.342,0,0,1,.338-.291h1.1a.068.068,0,0,0,.068-.069V7.938a.068.068,0,0,0-.068-.068h-1.1a.342.342,0,0,1-.338-.291,6.428,6.428,0,0,0-.366-1.36.341.341,0,0,1,.148-.42l.957-.553a.07.07,0,0,0,.025-.094l-.616-1.066a.068.068,0,0,0-.094-.025l-.958.553a.34.34,0,0,1-.438-.083,6.507,6.507,0,0,0-1-1,.34.34,0,0,1-.082-.437l.553-.958a.066.066,0,0,0-.025-.093L17.43,1.431a.067.067,0,0,0-.094.025l-.552.957a.344.344,0,0,1-.421.147A6.409,6.409,0,0,0,15,2.195a.342.342,0,0,1-.29-.338V.753a.069.069,0,0,0-.069-.069H13.413a.069.069,0,0,0-.069.069v1.1a.342.342,0,0,1-.291.338,6.416,6.416,0,0,0-1.359.365.344.344,0,0,1-.421-.147l-.552-.957a.068.068,0,0,0-.094-.025L9.56,2.047a.065.065,0,0,0-.025.092l.553.959a.34.34,0,0,1-.082.437,6.559,6.559,0,0,0-1,1,.339.339,0,0,1-.437.083l-.958-.553a.067.067,0,0,0-.094.025l-.228.395a.343.343,0,0,1-.468.126c-.363-.209-.036-.621.1-.863a.755.755,0,0,1,1.028-.277l.709.41a7.164,7.164,0,0,1,.686-.686l-.409-.709c-.491-.914.8-1.268,1.342-1.644a.753.753,0,0,1,1.028.275l.409.708a7.064,7.064,0,0,1,.938-.252V.753A.753.753,0,0,1,13.413,0h1.231A.754.754,0,0,1,15.4.753v.816a7.064,7.064,0,0,1,.938.252l.409-.708c.55-.879,1.493.053,2.095.341a.755.755,0,0,1,.275,1.028l-.409.709a7.164,7.164,0,0,1,.686.686l.709-.409c.916-.487,1.267.792,1.644,1.342a.754.754,0,0,1-.275,1.029l-.708.408a6.914,6.914,0,0,1,.252.938h.817A.753.753,0,0,1,22.582,7.938ZM3.96,20.1V22.24a.342.342,0,0,1-.684,0V20.1A.342.342,0,0,1,3.96,20.1Zm10.95,0V22.24a.342.342,0,0,1-.684,0V20.1A.342.342,0,0,1,14.91,20.1Z" id="management"/></g></g></svg>